<?xml version="1.0" standalone="no"?>
<!DOCTYPE svg PUBLIC "-//W3C//DTD SVG 20010904//EN"
 "http://www.w3.org/TR/2001/REC-SVG-20010904/DTD/svg10.dtd">
<svg version="1.0" xmlns="http://www.w3.org/2000/svg"
 width="512.000000pt" height="512.000000pt" viewBox="0 0 512.000000 512.000000"
 preserveAspectRatio="xMidYMid meet">

<g transform="translate(0.000000,512.000000) scale(0.100000,-0.100000)"
fill="#000000" stroke="none">
<path d="M4097 2553 c-3 -5 -174 -301 -381 -660 -207 -359 -376 -657 -376
-663 0 -6 31 -64 69 -128 75 -128 267 -462 369 -641 l64 -113 23 23 c19 19
1170 2003 1229 2116 9 18 16 41 16 53 0 20 -3 20 -504 20 -278 0 -507 -3 -509
-7z"/>
</g>
</svg>
